<svg xmlns="http://www.w3.org/2000/svg" viewBox="0 0 405.57 47.85"><defs><style>.cls-1{isolation:isolate;}.cls-2{fill:#e7e7e7;}.cls-3{fill:#ff6138;}.cls-4{fill:#79ba8c;}.cls-5{fill:#00a085;}.cls-6{fill:#ffff9a;}</style></defs><g id="Layer_2" data-name="Layer 2"><g id="Artwork"><g class="cls-1"><path class="cls-2" d="M82,25.33c0,2.92-.53,5-1.72,6.5a6.06,6.06,0,0,1-5,2.25H71V16.85h4.64a5.5,5.5,0,0,1,4.64,2.25A10.27,10.27,0,0,1,82,25.33Zm-2.41.14c0-3.93-1.09-6-3.25-6H75V31.43h1.08a3.14,3.14,0,0,0,2.72-1.49A9.4,9.4,0,0,0,79.59,25.47Z"/><path class="cls-2" d="M92.87,34.08l-1-4h-4.1l-1,4h-3.3l4.21-17.23H92.1l4.21,17.23Zm-1.29-7.95-.92-4a12.51,12.51,0,0,0-.4-1.85,12.69,12.69,0,0,0-.4-2c-.13.66-.26,1.46-.4,2.25s-.53,2.65-1.19,5.57Z"/><path class="cls-2" d="M110.9,34.08h-4.09l-5.46-13.25h-.14a22.7,22.7,0,0,1,.28,3.21v10H98.84V15.53h3.22l5.3,13.23h0a27.75,27.75,0,0,0-.57-2.91v-9h4V34.08Z"/><path class="cls-2" d="M113.42,34.08V16.85h2.65V34.08Z"/><path class="cls-2" d="M128,34.08h-8V16.85h8V19.5h-5.31v4H128v2.65h-5.31v5.3H128Z"/><path class="cls-2" d="M130.65,34.08V16.85h2.65V31.43h5.3v2.65Z"/><path class="cls-2" d="M160.76,32.76h-4l-1.72-8.11a33.27,33.27,0,0,1-.53-4.37l-.13.93-.53,3.57-1.59,9.3h-3.86L145,15.53h3.3l1.59,10.85c.13.92.4,2.51.67,4.63a44.17,44.17,0,0,1,.53-4.5L153,16.85h3.31l1.86,9.66c.26,1.46.4,2.91.53,4.5.27-2.38.53-3.84.66-4.63l1.46-10.85H164Z"/><path class="cls-2" d="M173.19,34.08l-1-4h-4.1l-1,4h-3.43l4.2-17.23h4.34l4.21,17.23Zm-1.29-7.95-.92-4a12.51,12.51,0,0,0-.4-1.85,12.69,12.69,0,0,0-.4-2c-.13.66-.26,1.46-.4,2.25s-.53,2.65-1.19,5.57Z"/><path class="cls-2" d="M178.36,34.08V16.85H181V31.43h5.3v2.65Z"/><path class="cls-2" d="M191.61,34.08H189V19.5h-2.65V16.85h9.28V19.5h-4Z"/><path class="cls-2" d="M206.19,34.08h-7.95V16.85h7.95V19.5h-5.3v4h4v2.65h-4v5.3h5.3Z"/><path class="cls-2" d="M211.5,27.32v6.76h-2.66V16.85h4.21A5.33,5.33,0,0,1,217,18.17,5,5,0,0,1,218.31,22a5.1,5.1,0,0,1-2.23,4.6l3.29,7.5h-4l-2.73-6.63H211.5Zm0-2.52h.83a1.93,1.93,0,0,0,1.68-.69,3.79,3.79,0,0,0,.55-2.1,2.52,2.52,0,0,0-.55-2,2.23,2.23,0,0,0-1.68-.56h-.83Z"/><path class="cls-2" d="M233.36,28.89a5.17,5.17,0,0,1-1.19,3.71,4.88,4.88,0,0,1-3.58,1.33,7.13,7.13,0,0,1-3.84-.93V29.82a7.42,7.42,0,0,0,3.58,1.33,1.4,1.4,0,0,0,1.32-.53,2.34,2.34,0,0,0,.53-1.33,2.53,2.53,0,0,0-.53-1.59,5.61,5.61,0,0,0-1.85-1.59,10.62,10.62,0,0,1-1.73-1.46,10,10,0,0,1-.92-1.59,4.74,4.74,0,0,1-.27-2,5.31,5.31,0,0,1,1.19-3.57,4.22,4.22,0,0,1,3.32-1.33,8,8,0,0,1,3.84,1.06l-1.06,2.52a4.44,4.44,0,0,0-1.19-.53,4,4,0,0,0-1.33-.27,1.31,1.31,0,0,0-1.19.53,2.43,2.43,0,0,0-.4,1.46,2.59,2.59,0,0,0,.53,1.59A6.6,6.6,0,0,0,230.32,24a9.86,9.86,0,0,1,2.38,2.25A5.59,5.59,0,0,1,233.36,28.89Z"/><path class="cls-2" d="M241.45,19a2.34,2.34,0,0,0-2.12,1.59,10.17,10.17,0,0,0-.8,4.51c0,4,1.06,6,3.18,6a5.37,5.37,0,0,0,2.92-.92v3a5.87,5.87,0,0,1-3.18.8,5.06,5.06,0,0,1-4.51-2.39,11.47,11.47,0,0,1-1.59-6.49,12,12,0,0,1,1.59-6.63A5.05,5.05,0,0,1,241.45,16a9.06,9.06,0,0,1,1.85.26,7.66,7.66,0,0,1,1.86.93l-1.06,2.65a5.68,5.68,0,0,0-1.19-.66A7,7,0,0,0,241.45,19Z"/><path class="cls-2" d="M258.72,25.05a11.66,11.66,0,0,1-1.59,6.63,5.17,5.17,0,0,1-4.64,2.25,5.5,5.5,0,0,1-4.64-2.25,11.66,11.66,0,0,1-1.59-6.63,11.66,11.66,0,0,1,1.59-6.63,5.17,5.17,0,0,1,4.64-2.25,5.5,5.5,0,0,1,4.64,2.25C258.19,19.88,258.72,22.13,258.72,25.05Zm-9.15,0a10.17,10.17,0,0,0,.8,4.51,2.38,2.38,0,0,0,2.25,1.59c2,0,2.92-2,2.92-6.1s-.93-6.1-2.92-6.1a2.5,2.5,0,0,0-2.25,1.59A9.79,9.79,0,0,0,249.57,25.05Z"/><path class="cls-2" d="M265.84,34.08h-2.65V19.5h-2.65V16.85h9.27V19.5h-4Z"/><path class="cls-2" d="M276.44,34.08h-2.65V19.5h-2.65V16.85h9.28V19.5h-4Z"/><path class="cls-2" d="M297.65,15.53h2.65V39.38h-2.65Z"/></g><g class="cls-1"><path class="cls-2" d="M327.71,20.69a6.26,6.26,0,0,1-1.25,4.18,5.12,5.12,0,0,1-3.77,1.26H321.5v6.63h-1.32V15.53h2.51a5.26,5.26,0,0,1,3.91,1.25A6,6,0,0,1,327.71,20.69Zm-6.08,4.11h1.18a3.83,3.83,0,0,0,2.87-.91,5,5,0,0,0,.78-3.13,3.93,3.93,0,0,0-.92-3,3.48,3.48,0,0,0-2.73-.91H321.5v8Z"/><path class="cls-2" d="M339.7,25.05c0,2.92-.4,5-1.33,6.63a4.13,4.13,0,0,1-7.42-.14,14.67,14.67,0,0,1-1.32-6.62,14.37,14.37,0,0,1,1.19-6.63A4.08,4.08,0,0,1,334.53,16a4.24,4.24,0,0,1,3.71,2.25A13.1,13.1,0,0,1,339.7,25.05Zm-8.75,0a13.72,13.72,0,0,0,.93,5.83,2.94,2.94,0,0,0,5.57,0,13.74,13.74,0,0,0,.92-5.83,13.74,13.74,0,0,0-.92-5.83,3,3,0,0,0-5.7,0A16.57,16.57,0,0,0,331,25.05Z"/><path class="cls-2" d="M344,26.13v8h-1.33V16.85h2.56a3.67,3.67,0,0,1,3.71.78,4.88,4.88,0,0,1,1.19,3.58,6.38,6.38,0,0,1-.66,2.91,4,4,0,0,1-2.12,1.73l3.44,8.23h-1.07l-3.35-7.95Zm.27-1.33H346a3,3,0,0,0,2.51-1,4.75,4.75,0,0,0,.84-3.07,3.53,3.53,0,0,0-1-2.93,4.31,4.31,0,0,0-2.93-1H344v8Z"/><path class="cls-2" d="M356,34.08h-1.32V16.85H352v1.33h7.95V16.85h-4Z"/><path class="cls-2" d="M362.76,34.08h-1.49V16.85h6.62v1.33h-5.3V24.8h5.3v1.33h-5.3v8Z"/><path class="cls-2" d="M379.59,25.05c0,2.92-.39,5-1.32,6.63a4.13,4.13,0,0,1-7.42-.14,14.52,14.52,0,0,1-1.33-6.62,14.5,14.5,0,0,1,1.19-6.63A4.1,4.1,0,0,1,374.42,16a4.24,4.24,0,0,1,3.72,2.25C379.2,20,379.59,22.13,379.59,25.05Zm-8.74,0a13.74,13.74,0,0,0,.92,5.83,2.94,2.94,0,0,0,5.57,0,13.72,13.72,0,0,0,.93-5.83,13.72,13.72,0,0,0-.93-5.83,3.05,3.05,0,0,0-2.78-2,3.09,3.09,0,0,0-2.92,2A20.37,20.37,0,0,0,370.85,25.05Z"/><path class="cls-2" d="M382.47,34.08V16.85h1.33V32.76h5.3v1.32Z"/><path class="cls-2" d="M391.75,34.08V16.85h1.32V34.08Z"/><path class="cls-2" d="M405.57,25.05a13.13,13.13,0,0,1-1.32,6.63,4.14,4.14,0,0,1-7.43-.14,14.67,14.67,0,0,1-1.32-6.62,14.5,14.5,0,0,1,1.19-6.63A4.1,4.1,0,0,1,400.4,16a4.23,4.23,0,0,1,3.71,2.25A13.1,13.1,0,0,1,405.57,25.05Zm-8.75,0a13.72,13.72,0,0,0,.93,5.83,2.94,2.94,0,0,0,5.57,0,13.72,13.72,0,0,0,.93-5.83,13.72,13.72,0,0,0-.93-5.83,3.05,3.05,0,0,0-2.79-2,3.09,3.09,0,0,0-2.91,2A16.57,16.57,0,0,0,396.82,25.05Z"/></g><path class="cls-3" d="M47.85,23.86a23.85,23.85,0,0,1-8.22,18l-6-6.89a14.85,14.85,0,0,0,5.16-11.27A15,15,0,0,0,34.33,13l6.23-6.36A23.93,23.93,0,0,1,47.85,23.86Z"/><path class="cls-4" d="M40.56,6.76,34.2,13.25a15.17,15.17,0,0,0-10.34-4.1A14.81,14.81,0,0,0,11,16.57L3.18,12.06a23.86,23.86,0,0,1,37.38-5.3Z"/><path class="cls-5" d="M19.75,38.17l-2.52,8.75h0a23.9,23.9,0,0,1-14-34.86L11,16.57A15.52,15.52,0,0,0,9,24,14.9,14.9,0,0,0,19.75,38.17Z"/><path class="cls-6" d="M39.63,42a23.63,23.63,0,0,1-15.77,5.83,27.72,27.72,0,0,1-6.76-.93l2.52-8.75a14.8,14.8,0,0,0,4.24.66,14.55,14.55,0,0,0,9.81-3.71Z"/></g></g></svg>